<?xml version="1.0" encoding="iso-8859-1"?>
<!-- Generator: Adobe Illustrator 16.0.0, SVG Export Plug-In . SVG Version: 6.00 Build 0)  -->
<!DOCTYPE svg PUBLIC "-//W3C//DTD SVG 1.1//EN" "http://www.w3.org/Graphics/SVG/1.1/DTD/svg11.dtd">
<svg version="1.1" id="Capa_1" xmlns="http://www.w3.org/2000/svg" xmlns:xlink="http://www.w3.org/1999/xlink" x="0px" y="0px"
	 width="377.343px" height="377.343px" viewBox="0 0 377.343 377.343" style="enable-background:new 0 0 377.343 377.343;"
	 xml:space="preserve">
<g>
	<path d="M301.697,53.5H75.651c-10.875,0-19.718,8.842-19.718,19.713v230.909c0,10.868,8.843,19.711,19.718,19.711h226.046
		c10.867,0,19.71-8.843,19.71-19.711V73.218C321.407,62.348,312.564,53.5,301.697,53.5z M197.072,227.15h-37.904v-48.106h-41.042
		v48.106H80.218V102.657c0-7.513,3.812-14.093,11.442-19.729c7.62-5.636,16.491-8.454,26.6-8.454h40.651
		c10.021,0,18.89,2.818,26.601,8.454c7.708,5.636,11.561,12.222,11.561,19.729V227.15z M118.126,102.657h41.042v48.206h-41.042
		V102.657z M338.677,0H38.665C19.096,0,3.221,15.869,3.221,35.439v306.464c0,19.573,15.875,35.439,35.443,35.439h300.012
		c19.569,0,35.444-15.866,35.444-35.439V35.434C374.121,15.869,358.246,0,338.677,0z M335.382,304.122
		c0,18.567-15.113,33.687-33.685,33.687H75.651c-18.574,0-33.693-15.114-33.693-33.687V73.218c0-18.569,15.114-33.688,33.693-33.688
		h226.046c18.566,0,33.685,15.114,33.685,33.688V304.122z"/>
</g>
<g>
</g>
<g>
</g>
<g>
</g>
<g>
</g>
<g>
</g>
<g>
</g>
<g>
</g>
<g>
</g>
<g>
</g>
<g>
</g>
<g>
</g>
<g>
</g>
<g>
</g>
<g>
</g>
<g>
</g>
</svg>
