<?xml version="1.0" encoding="UTF-8" standalone="no"?>
<!-- Generator: Adobe Illustrator 19.0.0, SVG Export Plug-In . SVG Version: 6.00 Build 0)  -->

<svg
   xmlns:dc="http://purl.org/dc/elements/1.1/"
   xmlns:cc="http://creativecommons.org/ns#"
   xmlns:rdf="http://www.w3.org/1999/02/22-rdf-syntax-ns#"
   xmlns:svg="http://www.w3.org/2000/svg"
   xmlns="http://www.w3.org/2000/svg"
   xmlns:sodipodi="http://sodipodi.sourceforge.net/DTD/sodipodi-0.dtd"
   xmlns:inkscape="http://www.inkscape.org/namespaces/inkscape"
   version="1.1"
   id="Layer_1"
   x="0px"
   y="0px"
   viewBox="0 0 50.122991 33.12299"
   xml:space="preserve"
   sodipodi:docname="arme.svg"
   inkscape:version="0.92.4 (5da689c313, 2019-01-14)"
   width="50.12299"
   height="33.12299"><metadata
   id="metadata1051"><rdf:RDF><cc:Work
       rdf:about=""><dc:format>image/svg+xml</dc:format><dc:type
         rdf:resource="http://purl.org/dc/dcmitype/StillImage" /><dc:title></dc:title></cc:Work></rdf:RDF></metadata><defs
   id="defs1049" /><sodipodi:namedview
   pagecolor="#ffffff"
   bordercolor="#666666"
   borderopacity="1"
   objecttolerance="10"
   gridtolerance="10"
   guidetolerance="10"
   inkscape:pageopacity="0"
   inkscape:pageshadow="2"
   inkscape:window-width="1920"
   inkscape:window-height="1001"
   id="namedview1047"
   showgrid="false"
   inkscape:zoom="6.411134"
   inkscape:cx="43.670464"
   inkscape:cy="30.006243"
   inkscape:window-x="-9"
   inkscape:window-y="-9"
   inkscape:window-maximized="1"
   inkscape:current-layer="g1012" />
























<g
   id="g1012"
   transform="translate(-54.280569,-756.75288)"
   style="opacity:1">
	<path
   style="fill:#232728;stroke-width:0.51222503"
   d="m 55.003666,773.98002 c -0.03066,-2.1708 1.709807,-3.9564 3.880677,-3.98127 l 17.039613,-0.22057 c 2.170877,-0.0248 3.953533,1.71274 3.98421,3.88354 l 0.08804,6.8812 c 0.02781,2.17373 -1.709803,3.95638 -3.883536,3.9842 l -17.039323,0.21512 c -2.170798,0.0307 -3.953454,-1.70694 -3.981271,-3.88066 z"
   id="path1004"
   inkscape:connector-curvature="0" />
	<path
   style="fill:#232728;stroke-width:0.51222503"
   d="m 58.927995,780.31805 c 0.775768,-0.0103 1.405569,0.60395 1.41586,1.38008 l 0.07752,6.05906 c 0.01285,0.77284 -0.606821,1.40852 -1.380078,1.41588 l -2.447534,0.0313 c -0.775761,0.0103 -1.405561,-0.60398 -1.415858,-1.3801 l -0.07753,-6.05906 c -0.0071,-0.7787 0.612608,-1.40857 1.385442,-1.42136 z"
   id="path1006"
   inkscape:connector-curvature="0" />
	<path
   style="fill:#232728;stroke-width:0.51222503"
   d="m 93.348235,761.03491 c -0.02779,-2.17372 1.709807,-3.95638 3.880672,-3.98127 l 2.459129,-0.0314 c 2.170784,-0.0307 3.956384,1.7098 3.984204,3.88353 l 0.11321,8.84921 c 0.0279,2.16796 -1.70986,3.9506 -3.880661,3.98128 l -2.464914,0.0315 c -2.170877,0.0248 -3.953533,-1.71273 -3.981278,-3.88067 z"
   id="path1008"
   inkscape:connector-curvature="0" />
	<path
   style="fill:#232728;stroke-width:0.51222503"
   d="m 103.78253,769.75207 c -0.0279,-2.17373 -1.81046,-3.91134 -3.9842,-3.88354 l -28.510598,0.36482 c -2.170879,0.0248 -3.911348,1.81046 -3.880679,3.98126 l 0.194995,15.23932 c 0.02779,2.17371 1.810475,3.91134 3.981271,3.88066 l 28.513531,-0.36193 c 2.16508,-0.0248 3.90269,-1.80747 3.88354,-3.98421 z"
   id="path1010"
   inkscape:connector-curvature="0" />
</g>
<path
   style="fill:#3d4344;stroke-width:0.51222503"
   d="m 17.302763,32.58245 28.51353,-0.361938 c 2.165077,-0.02484 3.902693,-1.807469 3.883534,-3.984214 l -0.08463,-6.387151 c -0.02781,-2.17373 -1.813407,-3.914211 -3.984206,-3.883538 l -28.510593,0.364798 c -2.170873,0.02484 -3.911348,1.810468 -3.880673,3.981268 l 0.08176,6.390097 c 0.02781,2.173732 1.810474,3.911352 3.981274,3.880678 z"
   id="path1014"
   inkscape:connector-curvature="0" />
<g
   id="g1016"
   transform="translate(0,-471)">
</g>
<g
   id="g1018"
   transform="translate(0,-471)">
</g>
<g
   id="g1020"
   transform="translate(0,-471)">
</g>
<g
   id="g1022"
   transform="translate(0,-471)">
</g>
<g
   id="g1024"
   transform="translate(0,-471)">
</g>
<g
   id="g1026"
   transform="translate(0,-471)">
</g>
<g
   id="g1028"
   transform="translate(0,-471)">
</g>
<g
   id="g1030"
   transform="translate(0,-471)">
</g>
<g
   id="g1032"
   transform="translate(0,-471)">
</g>
<g
   id="g1034"
   transform="translate(0,-471)">
</g>
<g
   id="g1036"
   transform="translate(0,-471)">
</g>
<g
   id="g1038"
   transform="translate(0,-471)">
</g>
<g
   id="g1040"
   transform="translate(0,-471)">
</g>
<g
   id="g1042"
   transform="translate(0,-471)">
</g>
<g
   id="g1044"
   transform="translate(0,-471)">
</g>
</svg>