<?xml version="1.0" encoding="UTF-8" standalone="no"?>
<!-- Generator: Adobe Illustrator 19.0.0, SVG Export Plug-In . SVG Version: 6.00 Build 0)  -->

<svg
   xmlns:dc="http://purl.org/dc/elements/1.1/"
   xmlns:cc="http://creativecommons.org/ns#"
   xmlns:rdf="http://www.w3.org/1999/02/22-rdf-syntax-ns#"
   xmlns:svg="http://www.w3.org/2000/svg"
   xmlns="http://www.w3.org/2000/svg"
   xmlns:sodipodi="http://sodipodi.sourceforge.net/DTD/sodipodi-0.dtd"
   xmlns:inkscape="http://www.inkscape.org/namespaces/inkscape"
   version="1.1"
   id="Layer_1"
   x="0px"
   y="0px"
   viewBox="0 0 79.25984 131.23623"
   xml:space="preserve"
   sodipodi:docname="mechant.svg"
   width="79.259842"
   height="131.23622"
   inkscape:version="0.92.4 (5da689c313, 2019-01-14)"><metadata
   id="metadata1359"><rdf:RDF><cc:Work
       rdf:about=""><dc:format>image/svg+xml</dc:format><dc:type
         rdf:resource="http://purl.org/dc/dcmitype/StillImage" /><dc:title></dc:title></cc:Work></rdf:RDF></metadata><defs
   id="defs1357" /><sodipodi:namedview
   pagecolor="#ffffff"
   bordercolor="#666666"
   borderopacity="1"
   objecttolerance="10"
   gridtolerance="10"
   guidetolerance="10"
   inkscape:pageopacity="0"
   inkscape:pageshadow="2"
   inkscape:window-width="1920"
   inkscape:window-height="1001"
   id="namedview1355"
   showgrid="false"
   units="px"
   width="110mm"
   inkscape:zoom="4.5333563"
   inkscape:cx="50.09924"
   inkscape:cy="56.34087"
   inkscape:window-x="-9"
   inkscape:window-y="-9"
   inkscape:window-maximized="1"
   inkscape:current-layer="Layer_1" />
<g
   id="g1246"
   transform="matrix(0.25753762,0,0,0.25753762,-37.248004,1.0068059)">
	<path
   style="fill:#363b3f"
   d="m 286.642,203.768 c 10.027,11.28 3.663,33.304 -14.218,49.223 -17.881,15.896 -114.018,85.024 -124.062,73.767 -10.012,-11.296 69.892,-98.714 87.773,-114.609 17.857,-15.895 40.472,-19.653 50.507,-8.381 z"
   id="path1242"
   inkscape:connector-curvature="0" />
	<path
   style="fill:#363b3f"
   d="m 308.611,203.768 c -10.027,11.28 -3.663,33.304 14.218,49.223 17.881,15.896 114.018,85.024 124.062,73.767 10.012,-11.296 -69.892,-98.714 -87.773,-114.609 -17.865,-15.895 -40.48,-19.653 -50.507,-8.381 z"
   id="path1244"
   inkscape:connector-curvature="0" />
</g>
<g
   id="g1252"
   transform="matrix(0.25753762,0,0,0.25753762,-37.248004,1.0068059)">
	<path
   style="fill:#799998"
   d="m 392.13,361.913 c 0,19.503 -15.817,124.668 -35.336,124.668 -19.495,0 -35.304,-105.173 -35.304,-124.668 0,-19.495 15.817,-35.32 35.304,-35.32 19.519,0 35.336,15.825 35.336,35.32 z"
   id="path1248"
   inkscape:connector-curvature="0" />
	<path
   style="fill:#799998"
   d="m 273.779,361.913 c 0,19.503 -15.817,124.668 -35.336,124.668 -19.495,0 -35.304,-105.173 -35.304,-124.668 0,-19.495 15.817,-35.32 35.304,-35.32 19.519,0 35.336,15.825 35.336,35.32 z"
   id="path1250"
   inkscape:connector-curvature="0" />
</g>
<path
   style="fill:#9dbab8;stroke-width:0.2575376"
   d="m 65.064998,82.193487 c 0,32.534723 -11.485922,21.699873 -25.661822,21.699873 -14.171781,0 -25.661822,10.83485 -25.661822,-21.699873 0,-18.602204 11.494162,-33.681032 25.661822,-33.681032 14.17178,0.0026 25.661822,15.080889 25.661822,33.681032 z"
   id="path1254"
   inkscape:connector-curvature="0" />
<path
   style="fill:#8daaa7;stroke-width:0.2575376"
   d="m 39.401115,48.514773 c 14.17178,0 25.661823,15.078571 25.661823,33.681023 0,32.534744 -11.485921,21.699874 -25.661823,21.699874"
   id="path1256"
   inkscape:connector-curvature="0" />
<path
   style="fill:#9dbab8;stroke-width:0.2575376"
   d="m 34.396388,126.48404 c 0,3.84632 -4.584686,4.35341 -10.234289,4.35341 -5.649603,0 -10.234289,-0.50503 -10.234289,-4.35341 0,-3.84839 4.584686,-9.1449 10.234289,-9.1449 5.649603,0 10.234289,5.29677 10.234289,9.1449 z"
   id="path1258"
   inkscape:connector-curvature="0" />
<path
   style="fill:#8daaa7;stroke-width:0.2575376"
   d="m 34.396388,126.48404 c 0,3.84632 -4.584686,4.35341 -10.234289,4.35341 -5.649603,0 -10.234289,-0.50503 -10.234289,-4.35341"
   id="path1260"
   inkscape:connector-curvature="0" />
<path
   style="fill:#9dbab8;stroke-width:0.2575376"
   d="m 64.878282,126.48404 c 0,3.84632 -4.584686,4.35341 -10.234288,4.35341 -5.649602,0 -10.234286,-0.50503 -10.234286,-4.35341 0,-3.84839 4.584684,-9.1449 10.234286,-9.1449 5.649602,0 10.234288,5.29677 10.234288,9.1449 z"
   id="path1262"
   inkscape:connector-curvature="0" />
<path
   style="fill:#8daaa7;stroke-width:0.2575376"
   d="m 64.878282,126.48404 c 0,3.84632 -4.584686,4.35341 -10.234288,4.35341 -5.649602,0 -10.234286,-0.50503 -10.234286,-4.35341"
   id="path1264"
   inkscape:connector-curvature="0" />
<path
   style="fill:#191e21;stroke-width:0.2575376"
   d="m 19.062339,61.716924 c 5.623334,2.848108 12.668534,4.2965 20.342896,4.2965 7.670245,0 14.715444,-1.448392 20.336717,-4.2965 -4.690018,-8.013026 -12.045807,-13.202151 -20.340837,-13.202151 -8.292968,0 -15.650819,5.187065 -20.338776,13.202151 z"
   id="path1266"
   inkscape:connector-curvature="0" />
<path
   style="fill:#9dbab8;stroke-width:0.2575376"
   d="m 72.611365,33.007917 c 0,16.226931 -14.869708,24.383921 -33.20613,24.383921 -18.34054,0 -33.2143702,-8.15699 -33.2143702,-24.383921 0,-16.230793 14.8735722,-32.0011111 33.2141122,-32.0011111 18.33668,0 33.206388,15.7703181 33.206388,32.0011111 z"
   id="path1268"
   inkscape:connector-curvature="0" />
<path
   style="fill:#8fa8a8;stroke-width:0.2575376"
   d="m 72.611365,33.007917 c 0,16.226931 -14.869708,24.383921 -33.20613,24.383921 -18.34054,0 -33.2143702,-8.15699 -33.2143702,-24.383921 0,-16.230793 14.8738302,-24.2234755 33.2143702,-24.2234755 18.336422,0 33.20613,7.9926825 33.20613,24.2234755 z"
   id="path1270"
   inkscape:connector-curvature="0" />
<path
   style="fill:#799998;stroke-width:0.2575376"
   d="m 72.611365,33.007917 c 0,16.226931 -14.869708,24.383921 -33.20613,24.383921 -18.34054,0 -33.2143702,-8.15699 -33.2143702,-24.383921"
   id="path1272"
   inkscape:connector-curvature="0" />
<path
   style="fill:#363b3f;stroke-width:0.2575376"
   d="m 66.787151,34.144174 c 0,2.239546 -1.817701,4.057247 -4.057248,4.057247 H 16.072069 c -2.239548,0 -4.057247,-1.817701 -4.057247,-4.057247 v -3.381728 c 0,-2.241607 1.817699,-4.057247 4.057247,-4.057247 h 46.657834 c 2.239547,0 4.057248,1.81564 4.057248,4.057247 z"
   id="path1274"
   inkscape:connector-curvature="0" />
<path
   style="fill:#191e21;stroke-width:0.2575376"
   d="m 12.014822,33.007917 v 1.135999 c 0,2.239546 1.817699,4.057248 4.057247,4.057248 h 46.657834 c 2.239547,0 4.057248,-1.817702 4.057248,-4.057248 v -1.135999 z"
   id="path1276"
   inkscape:connector-curvature="0" />
<path
   style="fill:#db1f1f;stroke-width:0.2575376"
   d="m 40.668972,34.056869 c 0,0.701788 -0.568127,1.269918 -1.267857,1.269918 v 0 c -0.699987,0 -1.267857,-0.56813 -1.267857,-1.269918 v -3.211237 c 0,-0.699987 0.568128,-1.26786 1.267857,-1.26786 v 0 c 0.699988,0 1.267857,0.56813 1.267857,1.26786 z"
   id="path1278"
   inkscape:connector-curvature="0" />
<path
   style="fill:#191e21;stroke-width:0.2575376"
   d="M 7.7425298,41.408538 C 12.000656,52.046644 24.5636,59.42046 39.404977,59.42046 c 14.83726,0 27.40046,-7.374074 31.654209,-18.011922 z"
   id="path1280"
   inkscape:connector-curvature="0" />
<path
   style="fill:#e29b86;stroke-width:0.2575376"
   d="M 45.614726,43.648084 H 33.189564 c -3.35932,0 -6.085871,2.72655 -6.085871,6.085872 v 7.874985 c 3.807694,1.162268 7.952247,1.81358 12.301542,1.81358 4.347237,0 8.491789,-0.649252 12.295363,-1.811519 v -7.877046 c 0,-3.361381 -2.726551,-6.085872 -6.085872,-6.085872 z"
   id="path1282"
   inkscape:connector-curvature="0" />
<path
   style="fill:#f9c1ac;stroke-width:0.2575376"
   d="M 45.614726,46.35223 H 33.189564 c -3.35932,0 -6.085871,2.72655 -6.085871,6.085871 v 5.17084 c 3.807694,1.162268 7.952247,1.81358 12.301542,1.81358 4.347237,0 8.491789,-0.649252 12.295363,-1.811519 v -5.172901 c 0,-3.361382 -2.726551,-6.085871 -6.085872,-6.085871 z"
   id="path1284"
   inkscape:connector-curvature="0" />
<g
   id="g1290"
   transform="matrix(0.25753762,0,0,0.25753762,-37.248004,1.0068059)">
	<path
   style="fill:#aad1ca"
   d="m 292.7,311.784 c 0,13.044 -10.587,23.631 -23.631,23.631 H 239.53 c -13.044,0 -23.631,-10.587 -23.631,-23.631 v -29.538 c 0,-13.044 10.587,-23.631 23.631,-23.631 h 29.538 c 13.044,0 23.631,10.587 23.631,23.631 v 29.538 z"
   id="path1286"
   inkscape:connector-curvature="0" />
	<path
   style="fill:#aad1ca"
   d="m 379.346,311.784 c 0,13.044 -10.587,23.631 -23.631,23.631 h -29.538 c -13.044,0 -23.631,-10.587 -23.631,-23.631 v -29.538 c 0,-13.044 10.587,-23.631 23.631,-23.631 h 29.538 c 13.044,0 23.631,10.587 23.631,23.631 z"
   id="path1288"
   inkscape:connector-curvature="0" />
</g>
<g
   id="g1296"
   transform="matrix(0.25753762,0,0,0.25753762,-37.248004,1.0068059)">
	<path
   style="fill:#363b3f"
   d="m 201.256,363.638 c 11.225,65.56 50.105,35.872 96.366,35.872 46.277,0 85.157,29.696 96.366,-35.872 z"
   id="path1292"
   inkscape:connector-curvature="0" />
	<circle
   style="fill:#363b3f"
   cx="297.591"
   cy="366.59201"
   r="18.046"
   id="circle1294" />
</g>
<g
   id="g1304"
   transform="matrix(0.25753762,0,0,0.25753762,-37.248004,1.0068059)">
	<path
   style="fill:#8daaa7"
   d="m 243.689,278.63 c 0,1.276 -1.032,2.3 -2.308,2.3 h -13.123 c -1.276,0 -2.292,-1.024 -2.292,-2.3 v 0 c 0,-1.26 1.016,-2.292 2.292,-2.292 h 13.123 c 1.277,0 2.308,1.032 2.308,2.292 z"
   id="path1298"
   inkscape:connector-curvature="0" />
	<path
   style="fill:#8daaa7"
   d="m 243.689,289.13 c 0,1.276 -1.032,2.3 -2.308,2.3 h -13.123 c -1.276,0 -2.292,-1.024 -2.292,-2.3 v 0 c 0,-1.26 1.016,-2.292 2.292,-2.292 h 13.123 c 1.277,0 2.308,1.032 2.308,2.292 z"
   id="path1300"
   inkscape:connector-curvature="0" />
	<path
   style="fill:#8daaa7"
   d="m 243.689,299.63 c 0,1.276 -1.032,2.3 -2.308,2.3 h -13.123 c -1.276,0 -2.292,-1.024 -2.292,-2.3 v 0 c 0,-1.26 1.016,-2.292 2.292,-2.292 h 13.123 c 1.277,0 2.308,1.032 2.308,2.292 z"
   id="path1302"
   inkscape:connector-curvature="0" />
</g>
<path
   style="fill:#191e21;stroke-width:0.2575376"
   d="m 44.979638,58.608961 c 0,2.45047 -1.987933,4.43866 -4.438661,4.43866 h -2.282299 c -2.45047,0 -4.438659,-1.986131 -4.438659,-4.43866 v 0 c 0,-2.450471 1.98613,-4.438662 4.438659,-4.438662 h 2.282299 c 2.450728,0 4.438661,1.988191 4.438661,4.438662 z"
   id="path1306"
   inkscape:connector-curvature="0" />
<path
   style="fill:#870e0e;stroke-width:0.2575376"
   d="m 44.133885,50.113309 c 0,1.014183 -2.119793,-0.123624 -4.73277,-0.123624 -2.614778,0 -4.734829,1.138058 -4.734829,0.123624 0,-1.014439 2.119793,-3.550156 4.734829,-3.550156 2.612719,0 4.73277,2.535717 4.73277,3.550156 z"
   id="path1308"
   inkscape:connector-curvature="0" />
<path
   style="fill:#9dbab8;stroke-width:0.2575376"
   d="m 57.151379,102.81634 c 0,2.19498 -7.948124,3.97405 -17.750264,3.97405 -9.80214,0 -17.750266,-1.77907 -17.750266,-3.97405"
   id="path1310"
   inkscape:connector-curvature="0" />


<g
   id="g1324"
   transform="translate(0,-372.88676)">
</g>
<g
   id="g1326"
   transform="translate(0,-372.88676)">
</g>
<g
   id="g1328"
   transform="translate(0,-372.88676)">
</g>
<g
   id="g1330"
   transform="translate(0,-372.88676)">
</g>
<g
   id="g1332"
   transform="translate(0,-372.88676)">
</g>
<g
   id="g1334"
   transform="translate(0,-372.88676)">
</g>
<g
   id="g1336"
   transform="translate(0,-372.88676)">
</g>
<g
   id="g1338"
   transform="translate(0,-372.88676)">
</g>
<g
   id="g1340"
   transform="translate(0,-372.88676)">
</g>
<g
   id="g1342"
   transform="translate(0,-372.88676)">
</g>
<g
   id="g1344"
   transform="translate(0,-372.88676)">
</g>
<g
   id="g1346"
   transform="translate(0,-372.88676)">
</g>
<g
   id="g1348"
   transform="translate(0,-372.88676)">
</g>
<g
   id="g1350"
   transform="translate(0,-372.88676)">
</g>
<g
   id="g1352"
   transform="translate(0,-372.88676)">
</g>
</svg>