<?xml version="1.0" encoding="UTF-8" standalone="no"?>
<!-- Generator: Adobe Illustrator 19.0.0, SVG Export Plug-In . SVG Version: 6.00 Build 0)  -->

<svg
   xmlns:dc="http://purl.org/dc/elements/1.1/"
   xmlns:cc="http://creativecommons.org/ns#"
   xmlns:rdf="http://www.w3.org/1999/02/22-rdf-syntax-ns#"
   xmlns:svg="http://www.w3.org/2000/svg"
   xmlns="http://www.w3.org/2000/svg"
   xmlns:sodipodi="http://sodipodi.sourceforge.net/DTD/sodipodi-0.dtd"
   xmlns:inkscape="http://www.inkscape.org/namespaces/inkscape"
   version="1.1"
   id="Layer_1"
   x="0px"
   y="0px"
   viewBox="0 0 79.122996 131.12299"
   xml:space="preserve"
   sodipodi:docname="mechant.svg"
   width="79.122993"
   height="131.12299"
   inkscape:version="0.92.4 (5da689c313, 2019-01-14)"><metadata
   id="metadata1167"><rdf:RDF><cc:Work
       rdf:about=""><dc:format>image/svg+xml</dc:format><dc:type
         rdf:resource="http://purl.org/dc/dcmitype/StillImage" /><dc:title></dc:title></cc:Work></rdf:RDF></metadata><defs
   id="defs1165" /><sodipodi:namedview
   pagecolor="#ffffff"
   bordercolor="#666666"
   borderopacity="1"
   objecttolerance="10"
   gridtolerance="10"
   guidetolerance="10"
   inkscape:pageopacity="0"
   inkscape:pageshadow="2"
   inkscape:window-width="1920"
   inkscape:window-height="1001"
   id="namedview1163"
   showgrid="false"
   showguides="true"
   inkscape:guide-bbox="true"
   inkscape:zoom="6.411134"
   inkscape:cx="57.275381"
   inkscape:cy="35.485199"
   inkscape:window-x="-9"
   inkscape:window-y="-9"
   inkscape:window-maximized="1"
   inkscape:current-layer="Layer_1" />
<g
   id="g1088"
   transform="matrix(0.26150882,0,0,0.26150882,-29.728887,-0.0856958)">
	<path
   style="fill:#057f73"
   d="m 236.064,361.913 c 0,19.503 -15.817,124.668 -35.336,124.668 -19.495,0 -35.304,-105.173 -35.304,-124.668 0,-19.495 15.817,-35.32 35.304,-35.32 19.519,0 35.336,15.825 35.336,35.32 z"
   id="path1084"
   inkscape:connector-curvature="0" />
	<path
   style="fill:#057f73"
   d="m 354.423,361.913 c 0,19.503 -15.825,124.668 -35.336,124.668 -19.503,0 -35.296,-105.173 -35.296,-124.668 0,-19.495 15.801,-35.32 35.296,-35.32 19.511,0 35.336,15.825 35.336,35.32 z"
   id="path1086"
   inkscape:connector-curvature="0" />
</g>
<g
   id="g1094"
   transform="matrix(0.26150882,0,0,0.26150882,-29.728887,-0.0856958)">
	<path
   style="fill:#15b78d"
   d="m 359.558,315.242 c 0,126.33 -44.591,84.259 -99.643,84.259 -55.028,0 -99.643,42.071 -99.643,-84.259 0,-72.231 44.631,-130.781 99.643,-130.781 55.028,0.009 99.643,58.558 99.643,130.781 z"
   id="path1090"
   inkscape:connector-curvature="0" />
	<path
   style="fill:#15b78d"
   d="m 294.267,214.315 c 11.28,-10.027 33.304,-3.663 49.231,14.218 15.896,17.881 85.023,114.018 73.767,124.062 -11.288,10.012 -98.721,-69.892 -114.617,-87.773 -15.888,-17.857 -19.645,-40.479 -8.381,-50.507 z"
   id="path1092"
   inkscape:connector-curvature="0" />
</g>
<path
   style="fill:#089b78;stroke-width:0.26150882"
   d="m 38.241177,91.000442 c -12.95881,0 -23.70316,8.900714 -25.71573,-13.438677 -0.22045,1.33474 -0.34205,2.912685 -0.34205,4.793456 0,33.036399 11.66721,22.034469 26.05752,22.034469 14.39658,0 26.05752,11.00193 26.05752,-22.034469 0,-1.880771 -0.1216,-3.458454 -0.34205,-4.793456 -2.01205,22.339391 -12.75222,13.438677 -25.71521,13.438677 z"
   id="path1096"
   inkscape:connector-curvature="0" />
<path
   style="fill:#15b78d;stroke-width:0.26150882"
   d="m 33.159537,127.32636 c 0,3.90564 -4.65747,4.42055 -10.39001,4.42055 -5.7388,0 -10.39418,-0.51282 -10.39418,-4.42055 0,-3.90772 4.65538,-9.28591 10.39418,-9.28591 5.73254,0.002 10.39001,5.37845 10.39001,9.28591 z"
   id="path1098"
   inkscape:connector-curvature="0" />
<path
   style="fill:#089b78;stroke-width:0.26150882"
   d="m 33.159537,127.32636 c 0,3.90564 -4.65747,4.42055 -10.39001,4.42055 -5.7388,0 -10.39418,-0.51282 -10.39418,-4.42055"
   id="path1100"
   inkscape:connector-curvature="0" />
<path
   style="fill:#15b78d;stroke-width:0.26150882"
   d="m 64.109367,127.32636 c 0,3.90564 -4.65538,4.42055 -10.3921,4.42055 -5.73671,0 -10.39209,-0.51282 -10.39209,-4.42055 0,-3.90772 4.65538,-9.28591 10.39209,-9.28591 5.73672,0 10.3921,5.37845 10.3921,9.28591 z"
   id="path1102"
   inkscape:connector-curvature="0" />
<path
   style="fill:#089b78;stroke-width:0.26150882"
   d="m 64.109367,127.32636 c 0,3.90564 -4.65538,4.42055 -10.3921,4.42055 -5.73671,0 -10.39209,-0.51282 -10.39209,-4.42055"
   id="path1104"
   inkscape:connector-curvature="0" />
<path
   style="fill:#15b78d;stroke-width:0.26150882"
   d="M 31.509474,52.497268 C 28.357557,50.123868 22.749277,52.246062 18.976682,57.236587 15.208674,62.231001 -0.78740436,88.743504 2.3533949,91.126338 5.5082553,93.499503 26.618935,70.832889 30.385587,65.840066 c 3.76714,-4.986935 4.269017,-10.961424 1.123887,-13.342798 z"
   id="path1106"
   inkscape:connector-curvature="0" />
<path
   style="fill:#21cc9b;stroke-width:0.26150882"
   d="m 71.963527,32.408865 c 0,16.477149 -15.099,24.759917 -33.72026,24.759917 -18.62125,0 -33.7244354,-8.282768 -33.7244354,-24.759917 0,-16.481071 15.1031854,-32.4945608 33.7244354,-32.4945608 18.62126,0 33.72026,16.0134898 33.72026,32.4945608 z"
   id="path1108"
   inkscape:connector-curvature="0" />
<path
   style="fill:#15b78d;stroke-width:0.26150882"
   d="m 71.963527,32.408865 c 0,16.477149 -15.099,24.759917 -33.72026,24.759917 -18.62125,0 -33.7244354,-8.282768 -33.7244354,-24.759917 0,-16.481071 15.1031854,-29.2338098 33.7244354,-29.2338098 18.62126,0 33.72026,12.7527388 33.72026,29.2338098 z"
   id="path1110"
   inkscape:connector-curvature="0" />
<path
   style="fill:#089b78;stroke-width:0.26150882"
   d="m 71.963527,32.408865 c 0,16.477149 -15.099,24.759917 -33.72026,24.759917 -18.62125,0 -33.7244354,-8.282768 -33.7244354,-24.759917"
   id="path1112"
   inkscape:connector-curvature="0" />
<path
   style="fill:#038462;stroke-width:0.26150882"
   d="m 28.693747,14.1851 c 4.15695,3.806784 7.35991,12.940241 3.55129,17.096924 -3.80469,4.156944 -14.15965,4.587387 -18.3166,0.776681 -4.1608604,-3.806784 -3.46472,-13.082241 0.34389,-17.239185 3.80679,-4.156682 10.2603,-4.443035 14.42142,-0.63442 z"
   id="path1114"
   inkscape:connector-curvature="0" />
<path
   style="fill:#243b3d;stroke-width:0.26150882"
   d="m 28.693747,14.1851 c 4.15695,3.806784 7.35991,12.940241 3.55129,17.096924 -3.80469,4.156944 -13.18318,1.765446 -17.33803,-2.04343 -4.16086,-3.806784 -4.4412,-10.260299 -0.63442,-14.419074 3.80653,-4.156682 10.26004,-4.443035 14.42116,-0.63442 z"
   id="path1116"
   inkscape:connector-curvature="0" />
<path
   style="fill:#1c292b;stroke-width:0.26150882"
   d="m 14.272327,14.81769 c 3.80862,-4.156944 10.2603,-4.441205 14.42117,-0.634421 4.15694,3.806784 7.3599,12.940241 3.55129,17.096924"
   id="path1118"
   inkscape:connector-curvature="0" />
<path
   style="fill:#038462;stroke-width:0.26150882"
   d="m 47.786777,14.1851 c -4.15695,3.806784 -7.362,12.940241 -3.55339,17.096924 3.80679,4.156944 14.16176,4.587387 18.3166,0.776681 4.16297,-3.806784 3.46683,-13.082241 -0.33995,-17.239185 -3.80862,-4.156682 -10.2603,-4.443035 -14.42326,-0.63442 z"
   id="path1120"
   inkscape:connector-curvature="0" />
<path
   style="fill:#243b3d;stroke-width:0.26150882"
   d="m 47.786777,14.1851 c -4.15695,3.806784 -7.362,12.940241 -3.55339,17.096924 3.80679,4.156944 13.18319,1.765446 17.34013,-2.04343 4.16087,-3.806784 4.44121,-10.260299 0.63652,-14.419074 -3.80862,-4.156682 -10.2603,-4.443035 -14.42326,-0.63442 z"
   id="path1122"
   inkscape:connector-curvature="0" />
<path
   style="fill:#1c292b;stroke-width:0.26150882"
   d="m 62.210037,14.81769 c -3.81071,-4.156944 -10.2603,-4.441205 -14.42326,-0.634421 -4.15695,3.806784 -7.362,12.940241 -3.55339,17.096924"
   id="path1124"
   inkscape:connector-curvature="0" />
<g
   id="g1130"
   transform="matrix(0.26150882,0,0,0.26150882,-29.728887,-0.0856958)">
	<circle
   style="fill:#057f73"
   cx="259.91501"
   cy="305.46701"
   r="13.855"
   id="circle1126" />
	<path
   style="fill:#057f73"
   d="m 267.501,247.115 v -11.681 h -15.187 v 11.681 c -28.908,3.734 -51.247,28.42 -51.247,58.337 0,29.909 22.339,54.603 51.247,58.321 v 11.689 h 15.187 v -11.689 c 28.9,-3.726 51.247,-28.412 51.247,-58.321 0,-29.917 -22.347,-54.604 -51.247,-58.337 z m 0,99.54 v -18.952 c -2.387,0.819 -4.939,1.268 -7.593,1.268 -2.654,0 -5.207,-0.457 -7.593,-1.268 v 18.952 c -19.519,-3.576 -34.304,-20.645 -34.304,-41.196 0,-20.551 14.793,-37.628 34.304,-41.196 v 18.952 c 2.387,-0.819 4.939,-1.276 7.593,-1.276 2.654,0 5.207,0.465 7.593,1.276 v -18.952 c 19.511,3.568 34.304,20.645 34.304,41.196 0.008,20.535 -14.793,37.62 -34.304,41.196 z"
   id="path1128"
   inkscape:connector-curvature="0" />
</g>
<g
   id="g1132"
   transform="translate(0,-373)">
</g>
<g
   id="g1134"
   transform="translate(0,-373)">
</g>
<g
   id="g1136"
   transform="translate(0,-373)">
</g>
<g
   id="g1138"
   transform="translate(0,-373)">
</g>
<g
   id="g1140"
   transform="translate(0,-373)">
</g>
<g
   id="g1142"
   transform="translate(0,-373)">
</g>
<g
   id="g1144"
   transform="translate(0,-373)">
</g>
<g
   id="g1146"
   transform="translate(0,-373)">
</g>
<g
   id="g1148"
   transform="translate(0,-373)">
</g>
<g
   id="g1150"
   transform="translate(0,-373)">
</g>
<g
   id="g1152"
   transform="translate(0,-373)">
</g>
<g
   id="g1154"
   transform="translate(0,-373)">
</g>
<g
   id="g1156"
   transform="translate(0,-373)">
</g>
<g
   id="g1158"
   transform="translate(0,-373)">
</g>
<g
   id="g1160"
   transform="translate(0,-373)">
</g>
</svg>